0
SECTION
2
HEADER
9
$INSUNITS
70
4
9
$ACADVER
1
AC1014
9
$HANDSEED
5
FFFF
0
ENDSEC
0
SECTION
2
TABLES
0
TABLE
2
VPORT
5
8
100
AcDbSymbolTable
0
ENDTAB
0
TABLE
2
LTYPE
5
5
100
AcDbSymbolTable
0
LTYPE
5
14
100
AcDbSymbolTableRecord
100
AcDbLinetypeTableRecord
2
BYBLOCK
70
0
0
LTYPE
5
15
100
AcDbSymbolTableRecord
100
AcDbLinetypeTableRecord
2
BYLAYER
70
0
0
LTYPE
5
16
100
AcDbSymbolTableRecord
100
AcDbLinetypeTableRecord
2
DASHED
70
0
3
Dashed __ __ __ __ __ __ __ __ __ __ __ __ __ _
72
65
73
2
40
0.75
49
0.5
74
0
49
-0.25
74
0
0
ENDTAB
0
TABLE
2
LAYER
5
2
100
AcDbSymbolTable
70
3
0
LAYER
5
50
100
AcDbSymbolTableRecord
100
AcDbLayerTableRecord
2
1
70
0
62
7
6
DASHED
0
LAYER
5
51
100
AcDbSymbolTableRecord
100
AcDbLayerTableRecord
2
0
70
0
62
7
6
CONTINUOUS
0
ENDTAB
0
TABLE
2
STYLE
5
3
100
AcDbSymbolTable
70
1
0
STYLE
5
11
100
AcDbSymbolTableRecord
100
AcDbTextStyleTableRecord
2
STANDARD
70
0
0
ENDTAB
0
TABLE
2
VIEW
5
6
100
AcDbSymbolTable
70
0
0
ENDTAB
0
TABLE
2
UCS
5
7
100
AcDbSymbolTable
70
0
0
ENDTAB
0
TABLE
2
APPID
5
9
100
AcDbSymbolTable
70
2
0
APPID
5
12
100
AcDbSymbolTableRecord
100
AcDbRegAppTableRecord
2
ACAD
70
0
0
ENDTAB
0
TABLE
2
DIMSTYLE
5
A
100
AcDbSymbolTable
70
1
0
ENDTAB
0
TABLE
2
BLOCK_RECORD
5
1
100
AcDbSymbolTable
70
1
0
BLOCK_RECORD
5
1F
100
AcDbSymbolTableRecord
100
AcDbBlockTableRecord
2
*MODEL_SPACE
0
BLOCK_RECORD
5
1B
100
AcDbSymbolTableRecord
100
AcDbBlockTableRecord
2
*PAPER_SPACE
0
ENDTAB
0
ENDSEC
0
SECTION
2
BLOCKS
0
BLOCK
5
20
100
AcDbEntity
100
AcDbBlockBegin
2
*MODEL_SPACE
0
ENDBLK
5
21
100
AcDbEntity
100
AcDbBlockEnd
0
BLOCK
5
1C
100
AcDbEntity
100
AcDbBlockBegin
2
*PAPER_SPACE
0
ENDBLK
5
1D
100
AcDbEntity
100
AcDbBlockEnd
0
ENDSEC
0
SECTION
2
ENTITIES
0
SPLINE
5
100
100
AcDbEntity
8
0
100
AcDbSpline
70
4
71
5
72
39
73
33
74
0
42
0.000000001
43
0.0000000001
44
0.0000000001
40
0.087663810468080861
40
0.087663810468080861
40
0.087663810468080861
40
0.087663810468080861
40
0.087663810468080861
40
0.087663810468080861
40
0.10000000000000001
40
0.13333333333333333
40
0.16666666666666666
40
0.20000000000000001
40
0.23333333333333331
40
0.26666666666666666
40
0.29999999999999999
40
0.33333333333333331
40
0.36666666666666653
40
0.40000000000000002
40
0.43333333333333329
40
0.46666666666666662
40
0.5
40
0.53333333333333333
40
0.56666666666666665
40
0.59999999999999998
40
0.6333333333333333
40
0.66666666666666663
40
0.69999999999999996
40
0.73333333333333306
40
0.76666666666666661
40
0.79999999999999982
40
0.83333333333333315
40
0.8666666666666667
40
0.8999999999999998
40
0.93333333333333324
40
0.96666666666666645
40
0.97370474997130119
40
0.97370474997130119
40
0.97370474997130119
40
0.97370474997130119
40
0.97370474997130119
40
0.97370474997130119
41
1
41
1
41
1
41
1
41
1
41
1
41
1
41
1
41
1
41
1
41
1
41
1
41
1
41
1
41
1
41
1
41
1
41
1
41
1
41
1
41
1
41
1
41
1
41
1
41
1
41
1
41
1
41
1
41
1
41
1
41
1
41
1
41
1
10
78.918109917388833
20
21.473011383925609
30
0
10
78.929986150891338
20
21.31858089340016
30
0
10
78.96130476727032
20
20.741025157804536
30
0
10
78.934139187487546
20
19.705638711068669
30
0
10
78.69192257599353
20
18.156017697555388
30
0
10
77.98586789578988
20
16.063808443119029
30
0
10
76.610588781087728
20
13.714860736244807
30
0
10
74.653809424851147
20
11.578530671052132
30
0
10
72.148450384035499
20
9.7968558786802635
30
0
10
69.19617448887854
20
8.4511774788181153
30
0
10
66.004322863602852
20
7.5153039159473698
30
0
10
62.868294294530749
20
6.8546015711197361
30
0
10
60.096321895610103
20
6.2755004670090617
30
0
10
57.945810144015432
20
5.5624170638159818
30
0
10
56.563096160234288
20
4.5166502711023941
30
0
10
55.900396507890129
20
3.0014754110573816
30
0
10
55.716981251882743
20
0.95939705024887789
30
0
10
55.70032176854707
20
-1.609451053682962
30
0
10
55.548205897796173
20
-4.6582808822069293
30
0
10
55.085615611699467
20
-8.109237616318806
30
0
10
54.287121201315848
20
-11.863282108431981
30
0
10
53.230558017065455
20
-15.807597150052812
30
0
10
52.070750008023566
20
-19.823489830748255
30
0
10
51.006161466218138
20
-23.793846591653743
30
0
10
50.24800106959777
20
-27.611070188574072
30
0
10
49.990833405913619
20
-31.184118904589155
30
0
10
50.376317371802138
20
-34.447973692107908
30
0
10
51.492413480269136
20
-37.362029611648801
30
0
10
53.089559082974922
20
-39.502573870662609
30
0
10
54.720555774827844
20
-40.937785612009492
30
0
10
56.040263896666154
20
-41.832300062160989
30
0
10
56.822129824033219
20
-42.294136273191548
30
0
10
56.960228291608068
20
-42.37379481186035
30
0
0
SPLINE
5
101
100
AcDbEntity
8
0
100
AcDbSpline
70
4
71
3
72
11
73
7
74
0
42
0.000000001
43
0.0000000001
44
0.0000000001
40
0
40
0
40
0
40
0
40
0.25
40
0.5
40
0.75
40
1
40
1
40
1
40
1
41
1
41
1
41
1
41
1
41
1
41
1
41
1
10
57.192751554655032
20
-45.753686228786357
30
0
10
57.493740998649699
20
-45.644972306683293
30
0
10
58.059825131482938
20
-45.230469988962348
30
0
10
58.444820494293531
20
-44.251241328334373
30
0
10
58.270629678644646
20
-43.357856464844829
30
0
10
57.793172538610953
20
-42.853761565035626
30
0
10
56.960228291608068
20
-42.37379481186035
30
0
0
ARC
5
102
100
AcDbEntity
8
0
100
AcDbCircle
10
0.22329373571081668
20
112.03103187785672
30
0
40
167.75439306372061
210
0
220
0
230
1
100
AcDbArc
50
250.40670896188703
51
289.85252973232889
0
CIRCLE
5
103
100
AcDbEntity
8
0
100
AcDbCircle
10
59.46369979220934
20
-51.043358968502133
30
0
40
0.99999999999999645
210
0
220
0
230
1
0
CIRCLE
5
104
100
AcDbEntity
8
0
100
AcDbCircle
10
52.708563902500245
20
-53.358211368964859
30
0
40
0.99999999999999645
210
0
220
0
230
1
0
CIRCLE
5
105
100
AcDbEntity
8
0
100
AcDbCircle
10
45.863678540658093
20
-55.392405781404975
30
0
40
0.99999999999999645
210
0
220
0
230
1
0
CIRCLE
5
106
100
AcDbEntity
8
0
100
AcDbCircle
10
66.117583906700133
20
-48.451790193544333
30
0
40
0.99999999999999645
210
0
220
0
230
1
0
CIRCLE
5
107
100
AcDbEntity
8
0
100
AcDbCircle
10
38.940698830680788
20
-57.142478482639476
30
0
40
0.99999999999999645
210
0
220
0
230
1
0
CIRCLE
5
108
100
AcDbEntity
8
0
100
AcDbCircle
10
31.951412871665607
20
-58.60544953754016
30
0
40
0.99999999999999645
210
0
220
0
230
1
0
CIRCLE
5
109
100
AcDbEntity
8
0
100
AcDbCircle
10
24.907721665631328
20
-59.778827873116178
30
0
40
0.99999999999999645
210
0
220
0
230
1
0
CIRCLE
5
110
100
AcDbEntity
8
0
100
AcDbCircle
10
17.821618853094829
20
-60.660615520186951
30
0
40
0.99999999999999645
210
0
220
0
230
1
0
CIRCLE
5
111
100
AcDbEntity
8
0
100
AcDbCircle
10
10.705170290907901
20
-61.249311015422876
30
0
40
0.99999999999999645
210
0
220
0
230
1
0
CIRCLE
5
112
100
AcDbEntity
8
0
100
AcDbCircle
10
3.5704935071271926
20
-61.543911957960859
30
0
40
0.99999999999999645
210
0
220
0
230
1
0
CIRCLE
5
113
100
AcDbEntity
8
0
100
AcDbCircle
10
-3.5702629320983714
20
-61.543916716241895
30
0
40
0.99999999999999645
210
0
220
0
230
1
0
CIRCLE
5
114
100
AcDbEntity
8
0
100
AcDbCircle
10
-10.704940108490559
20
-61.249325282163902
30
0
40
0.99999999999999645
210
0
220
0
230
1
0
CIRCLE
5
115
100
AcDbEntity
8
0
100
AcDbCircle
10
-17.821389455231952
20
-60.66063927109532
30
0
40
0.99999999999999645
210
0
220
0
230
1
0
CIRCLE
5
116
100
AcDbEntity
8
0
100
AcDbCircle
10
-24.907493442929926
20
-59.778861067749965
30
0
40
0.99999999999999645
210
0
220
0
230
1
0
CIRCLE
5
117
100
AcDbEntity
8
0
100
AcDbCircle
10
-31.951186212731727
20
-58.605492119377288
30
0
40
0.99999999999999645
210
0
220
0
230
1
0
CIRCLE
5
118
100
AcDbEntity
8
0
100
AcDbCircle
10
-38.940474121457775
20
-57.142530379173678
30
0
40
0.99999999999999645
210
0
220
0
230
1
0
CIRCLE
5
119
100
AcDbEntity
8
0
100
AcDbCircle
10
-45.863456163769492
20
-55.392466904269533
30
0
40
0.99999999999999645
210
0
220
0
230
1
0
CIRCLE
5
120
100
AcDbEntity
8
0
100
AcDbCircle
10
-52.708344236598137
20
-53.358281614082827
30
0
40
0.99999999999999645
210
0
220
0
230
1
0
CIRCLE
5
121
100
AcDbEntity
8
0
100
AcDbCircle
10
-59.463483211329688
20
-51.043438216263709
30
0
40
0.99999999999999645
210
0
220
0
230
1
0
CIRCLE
5
122
100
AcDbEntity
8
0
100
AcDbCircle
10
-66.117370779567153
20
-48.451878308868395
30
0
40
0.99999999999999645
210
0
220
0
230
1
0
ARC
5
123
100
AcDbEntity
8
0
100
AcDbCircle
10
0.22329373570967093
20
112.0310318778514
30
0
40
167.75439306371513
210
0
220
0
230
1
100
AcDbArc
50
247.54070447805876
51
250.40670896188678
0
ARC
5
124
100
AcDbEntity
8
0
100
AcDbCircle
10
-66.117370779567153
20
-48.451878308868395
30
0
40
5.9000000000000297
210
0
220
-0
230
1
100
AcDbArc
50
67.540704478056441
51
86.92718217853708
0
ARC
5
125
100
AcDbEntity
8
0
100
AcDbCircle
10
-64.983623281858172
20
-27.332287483978899
30
0
40
15.249999999983871
210
0
220
0
230
1
100
AcDbArc
50
263.85314751431343
51
266.927182178539
0
LINE
5
126
100
AcDbEntity
8
0
100
AcDbLine
10
-66.616549603132796
20
-42.494610908467521
30
0
11
-75.807108172932061
21
-41.504821640973113
31
0
0
CIRCLE
5
127
100
AcDbEntity
8
0
100
AcDbCircle
10
-76.063703517678277
20
-44.493827969011683
30
0
40
1.25
210
0
220
0
230
1
0
ARC
5
128
100
AcDbEntity
8
0
100
AcDbCircle
10
-76.063703517678277
20
-44.493827969011683
30
0
40
3.0000000000000009
210
0
220
0
230
1
100
AcDbArc
50
94.351072664202363
51
240.38283476622706
0
LINE
5
129
100
AcDbEntity
8
0
100
AcDbLine
10
-75.807108172932061
20
-41.504821640973113
30
0
11
-76.291306239485777
21
-41.502474261904176
31
0
0
ARC
5
130
100
AcDbEntity
8
0
100
AcDbCircle
10
-85.082896154530786
20
-60.359409085987693
30
0
40
15.25
210
0
220
-0
230
1
100
AcDbArc
50
52.357895734460378
51
60.382834766227752
0
LINE
5
131
100
AcDbEntity
8
0
100
AcDbLine
10
-75.769306056588832
20
-48.283832930477864
30
0
11
-71.54869917015381
21
-51.539081541275706
31
0
0
ARC
5
132
100
AcDbEntity
8
0
100
AcDbCircle
10
-80.862289268095765
20
-63.614657696785535
30
0
40
15.25
210
0
220
-0
230
1
100
AcDbArc
50
45.800466434160292
51
52.357895734460378
0
ARC
5
133
100
AcDbEntity
8
0
100
AcDbCircle
10
-66.117370779567153
20
-48.451878308868395
30
0
40
5.8999999999999551
210
0
220
0
230
1
100
AcDbArc
50
225.80046643416031
51
247.5407044780587
0
ARC
5
134
100
AcDbEntity
8
0
100
AcDbCircle
10
0.22329373571075006
20
112.03103187785533
30
0
40
179.55439306371917
210
0
220
0
230
1
100
AcDbArc
50
247.54070447805887
51
268.1357461783212
0
LINE
5
135
100
AcDbEntity
8
0
100
AcDbLine
10
-5.6179027111345778
20
-67.428324224159894
30
0
11
5.4106884490600571
21
-67.448412640363742
31
0
0
ARC
5
136
100
AcDbEntity
8
0
100
AcDbCircle
10
0.22329373571096767
20
112.03103187785452
30
0
40
179.55439306371835
210
0
220
0
230
1
100
AcDbArc
50
271.6555272171737
51
292.08651278027048
0
ARC
5
137
100
AcDbEntity
8
0
100
AcDbCircle
10
60.968739284564322
20
-37.66804214485817
30
0
40
18.000000000000323
210
0
220
0
230
1
100
AcDbArc
50
292.08651278026974
51
311.62907069940167
0
LINE
5
138
100
AcDbEntity
8
0
100
AcDbLine
10
72.926239086269419
20
-51.12234251656956
30
0
11
78.01298236409616
21
-46.774247224084704
31
0
0
ARC
5
139
100
AcDbEntity
8
0
100
AcDbCircle
10
76.063703517678277
20
-44.493827969011683
30
0
40
3.0000000000000027
210
0
220
0
230
1
100
AcDbArc
50
310.52348036214113
51
356.89479577572962
0
ARC
5
140
100
AcDbEntity
8
0
100
AcDbCircle
10
94.286908031511814
20
-45.482421539188557
30
0
40
15.250000000000018
210
0
220
0
230
1
100
AcDbArc
50
167.20723226390703
51
176.89479577572965
0
CIRCLE
5
141
100
AcDbEntity
8
0
100
AcDbCircle
10
76.063703517678277
20
-44.493827969011683
30
0
40
1.25
210
0
220
0
230
1
0
SPLINE
5
142
100
AcDbEntity
8
0
100
AcDbSpline
70
4
71
5
72
19
73
13
74
0
42
0.000000001
43
0.0000000001
44
0.0000000001
40
0.013161457730656441
40
0.013161457730656441
40
0.013161457730656441
40
0.013161457730656441
40
0.013161457730656441
40
0.013161457730656441
40
0.10000000000000001
40
0.20000000000000001
40
0.30000000000000004
40
0.40000000000000002
40
0.5
40
0.59999999999999998
40
0.69999999999999996
40
0.75680235961137443
40
0.75680235961137443
40
0.75680235961137443
40
0.75680235961137443
40
0.75680235961137443
40
0.75680235961137443
41
1
41
1
41
1
41
1
41
1
41
1
41
1
41
1
41
1
41
1
41
1
41
1
41
1
10
79.415454025088351
20
-42.105684099760865
30
0
10
79.952787943121123
20
-39.739217416621301
30
0
10
81.0836564052141
20
-34.713575745104791
30
0
10
82.736262721413411
20
-27.216391078939928
30
0
10
84.788931290680253
20
-17.565647932437837
30
0
10
87.047764100995295
20
-6.2680753841064218
30
0
10
88.971602504166526
20
4.2998644116664284
30
0
10
90.425881113413524
20
13.640666295067554
30
0
10
91.242572309807585
20
20.836561473161488
30
0
10
91.461591430431142
20
25.362468722664509
30
0
10
91.377145190685795
20
27.987261825402587
30
0
10
91.231451603297714
20
29.343948356398464
30
0
10
91.166182746330122
20
29.802771212015422
30
0
0
LINE
5
143
100
AcDbEntity
8
0
100
AcDbLine
10
89.693906305709362
20
31.091464291965885
30
0
11
81.087349691414303
21
31.16475566314632
31
0
0
CIRCLE
5
144
100
AcDbEntity
8
0
100
AcDbCircle
10
81.998152862912548
20
26.511318152805792
30
0
40
1.25
210
0
220
0
230
1
0
ARC
5
145
100
AcDbEntity
8
0
100
AcDbCircle
10
81.062410301147963
20
26.519309716998073
30
0
40
4.6455128900662865
210
0
220
-0
230
1
100
AcDbArc
50
89.692406693610351
51
231.48365703936895
0
ARC
5
146
100
AcDbEntity
8
0
100
AcDbCircle
10
76.923997949885006
20
21.319657345641644
30
0
40
2.0000000000000133
210
0
220
-0
230
1
100
AcDbArc
50
4.397585951569301
51
51.48365703936873
0
CIRCLE
5
147
100
AcDbEntity
8
0
100
AcDbCircle
10
68.638140391307104
20
-25.143009614201453
30
0
40
1.25
210
0
220
0
230
1
0
CIRCLE
5
148
100
AcDbEntity
8
0
100
AcDbCircle
10
60.504828272412979
20
-0.079362740581079838
30
0
40
1.25
210
0
220
0
230
1
0
ARC
5
149
100
AcDbEntity
8
0
100
AcDbCircle
10
89.681133128735411
20
29.591518677635051
30
0
40
1.5000000000001099
210
0
220
-0
230
1
100
AcDbArc
50
8.0961682943836966
51
89.512094682252339
0
ENDSEC
0
SECTION
2
OBJECTS
0
DICTIONARY
5
C
100
AcDbDictionary
3
ACAD_GROUP
350
D
3
ACAD_MLINESTYLE
350
17
0
DICTIONARY
5
D
100
AcDbDictionary
0
DICTIONARY
5
1A
330
C
100
AcDbDictionary
0
DICTIONARY
5
17
100
AcDbDictionary
0
ENDSEC
0
EOF
