0
SECTION
2
HEADER
9
$INSUNITS
70
4
9
$ACADVER
1
AC1014
9
$HANDSEED
5
FFFF
0
ENDSEC
0
SECTION
2
TABLES
0
TABLE
2
VPORT
5
8
100
AcDbSymbolTable
0
ENDTAB
0
TABLE
2
LTYPE
5
5
100
AcDbSymbolTable
0
LTYPE
5
14
100
AcDbSymbolTableRecord
100
AcDbLinetypeTableRecord
2
BYBLOCK
70
0
0
LTYPE
5
15
100
AcDbSymbolTableRecord
100
AcDbLinetypeTableRecord
2
BYLAYER
70
0
0
LTYPE
5
16
100
AcDbSymbolTableRecord
100
AcDbLinetypeTableRecord
2
DASHED
70
0
3
Dashed __ __ __ __ __ __ __ __ __ __ __ __ __ _
72
65
73
2
40
0.75
49
0.5
74
0
49
-0.25
74
0
0
ENDTAB
0
TABLE
2
LAYER
5
2
100
AcDbSymbolTable
70
3
0
LAYER
5
50
100
AcDbSymbolTableRecord
100
AcDbLayerTableRecord
2
1
70
0
62
7
6
DASHED
0
LAYER
5
51
100
AcDbSymbolTableRecord
100
AcDbLayerTableRecord
2
0
70
0
62
7
6
CONTINUOUS
0
ENDTAB
0
TABLE
2
STYLE
5
3
100
AcDbSymbolTable
70
1
0
STYLE
5
11
100
AcDbSymbolTableRecord
100
AcDbTextStyleTableRecord
2
STANDARD
70
0
0
ENDTAB
0
TABLE
2
VIEW
5
6
100
AcDbSymbolTable
70
0
0
ENDTAB
0
TABLE
2
UCS
5
7
100
AcDbSymbolTable
70
0
0
ENDTAB
0
TABLE
2
APPID
5
9
100
AcDbSymbolTable
70
2
0
APPID
5
12
100
AcDbSymbolTableRecord
100
AcDbRegAppTableRecord
2
ACAD
70
0
0
ENDTAB
0
TABLE
2
DIMSTYLE
5
A
100
AcDbSymbolTable
70
1
0
ENDTAB
0
TABLE
2
BLOCK_RECORD
5
1
100
AcDbSymbolTable
70
1
0
BLOCK_RECORD
5
1F
100
AcDbSymbolTableRecord
100
AcDbBlockTableRecord
2
*MODEL_SPACE
0
BLOCK_RECORD
5
1B
100
AcDbSymbolTableRecord
100
AcDbBlockTableRecord
2
*PAPER_SPACE
0
ENDTAB
0
ENDSEC
0
SECTION
2
BLOCKS
0
BLOCK
5
20
100
AcDbEntity
100
AcDbBlockBegin
2
*MODEL_SPACE
0
ENDBLK
5
21
100
AcDbEntity
100
AcDbBlockEnd
0
BLOCK
5
1C
100
AcDbEntity
100
AcDbBlockBegin
2
*PAPER_SPACE
0
ENDBLK
5
1D
100
AcDbEntity
100
AcDbBlockEnd
0
ENDSEC
0
SECTION
2
ENTITIES
0
LWPOLYLINE
5
100
100
AcDbEntity
8
0
100
AcDbPolyline
90
10
70
1
43
0.0
10
-69.403417434296969
20
-44.136112249778904
42
0.28366093829895617
10
-65.91179715861773
20
-48.057683290087283
42
0.14686663206300415
10
66.852559588500469
20
-47.909327664180033
42
0.99999999999999989
10
63.389343538353735
20
-36.419935400443613
42
-0.12599673597268082
10
-45.098094649360483
20
-40.989211658275799
42
-0.35370547182960499
10
-54.573572086293083
20
-29.326041623139698
10
-54.715712419719978
20
31.715643695191325
42
0.41353170320301152
10
-60.21569750852133
20
37.202836550200374
10
-77.20118251743051
20
37.202836550200367
42
0.46634770193584063
10
-82.617499459153422
20
30.747058967911791
0
CIRCLE
5
101
100
AcDbEntity
8
0
100
AcDbCircle
10
65.120951563427184
20
-42.164631532311709
30
0
40
1.5000000000000036
210
0
220
0
230
1
0
LWPOLYLINE
5
102
100
AcDbEntity
8
0
100
AcDbPolyline
90
4
70
1
43
0.0
10
68.151495618116343
20
-43.985566109002519
10
66.941886140118001
20
-39.13408747762255
10
62.090407508738025
20
-40.343696955620885
10
63.300016986736352
20
-45.195175587000861
0
CIRCLE
5
103
100
AcDbEntity
8
0
100
AcDbCircle
10
58.429438012539407
20
-43.779243287025722
30
0
40
1.5000000000000036
210
0
220
-0
230
1
0
LWPOLYLINE
5
104
100
AcDbEntity
8
0
100
AcDbPolyline
90
4
70
1
43
0.0
10
61.423492145242029
20
-45.659573005571445
10
60.309767731085145
20
-40.785189154323085
10
55.435383879836778
20
-41.898913568479969
10
56.549108293993662
20
-46.77329741972833
0
CIRCLE
5
105
100
AcDbEntity
8
0
100
AcDbCircle
10
51.707394873011694
20
-45.261625847402335
30
0
40
1.5000000000000036
210
0
220
-0
230
1
0
LWPOLYLINE
5
106
100
AcDbEntity
8
0
100
AcDbPolyline
90
4
70
1
43
0.0
10
54.663798648097021
20
-47.200614428766627
10
53.646383454375986
20
-42.305222072316994
10
48.750991097926352
20
-43.322637266038029
10
49.768406291647395
20
-48.21802962248767
0
CIRCLE
5
107
100
AcDbEntity
8
0
100
AcDbCircle
10
44.957434631185613
20
-46.611203099265879
30
0
40
1.5000000000000038
210
0
220
-0
230
1
0
LWPOLYLINE
5
108
100
AcDbEntity
8
0
100
AcDbPolyline
90
4
70
1
43
0.0
10
47.875038974538299
20
-48.608096911076984
10
46.954328442996733
20
-43.6935987559132
10
42.03983028783292
20
-44.614309287454759
10
42.960540819374486
20
-49.528807442618557
0
CIRCLE
5
109
100
AcDbEntity
8
0
100
AcDbCircle
10
38.182180813880798
20
-47.827450498472601
30
0
40
1.5000000000000038
210
0
220
-0
230
1
0
LWPOLYLINE
5
110
100
AcDbEntity
8
0
100
AcDbPolyline
90
4
70
1
43
0.0
10
41.059851731674257
20
-49.881473402163252
10
40.23620371757147
20
-44.949779580679149
10
35.30450989608736
20
-45.773427594781936
10
36.128157910190147
20
-50.705121416266039
0
CIRCLE
5
111
100
AcDbEntity
8
0
100
AcDbCircle
10
31.384266778844996
20
-48.909895322582997
30
0
40
1.5000000000000036
210
0
220
-0
230
1
0
LWPOLYLINE
5
112
100
AcDbEntity
8
0
100
AcDbPolyline
90
4
70
1
43
0.0
10
34.220885798294105
20
-51.020248975054429
10
33.494620431316434
20
-46.073276303133888
10
28.547647759395876
20
-46.799541670111566
10
29.273913126373561
20
-51.746514342032114
0
CIRCLE
5
113
100
AcDbEntity
8
0
100
AcDbCircle
10
24.566334691239113
20
-49.858116854596716
30
0
40
1.5000000000000036
210
0
220
-0
230
1
0
LWPOLYLINE
5
114
100
AcDbEntity
8
0
100
AcDbPolyline
90
4
70
1
43
0.0
10
27.36079929532039
20
-52.023981018512998
10
26.732198855155424
20
-47.063652250515432
10
21.771870087157836
20
-47.692252690680391
10
22.400470527322813
20
-52.652581458677972
0
CIRCLE
5
115
100
AcDbEntity
8
0
100
AcDbCircle
10
17.731034496699198
20
-50.671746546473173
30
0
40
1.5000000000000036
210
0
220
-0
230
1
0
LWPOLYLINE
5
116
100
AcDbEntity
8
0
100
AcDbPolyline
90
4
70
1
43
0.0
10
20.482258552669215
20
-52.892279409065353
10
19.951567359291388
20
-47.920522490503153
10
14.979810440729171
20
-48.451213683880987
10
15.51050163410701
20
-53.422970602443186
0
CIRCLE
5
117
100
AcDbEntity
8
0
100
AcDbCircle
10
10.881022891374297
20
-51.350468162376643
30
0
40
1.5000000000000036
210
0
220
-0
230
1
0
LWPOLYLINE
5
118
100
AcDbEntity
8
0
100
AcDbPolyline
90
4
70
1
43
0.0
10
13.587937072920155
20
-53.624806662632459
10
13.155361391630125
20
-48.643553980830802
10
8.1741087098284471
20
-49.07612966212082
10
8.6066843911184687
20
-54.057382343922491
0
CIRCLE
5
119
100
AcDbEntity
8
0
100
AcDbCircle
10
4.0146041296011692
20
-51.866001277460718
30
0
40
1.5000000000000036
210
0
220
-0
230
1
0
LWPOLYLINE
5
120
100
AcDbEntity
8
0
100
AcDbPolyline
90
4
70
1
43
0.0
10
6.6197690042873791
20
-54.25621381522825
10
6.4048166673687046
20
-49.260836402774508
10
1.4094392549149504
20
-49.475788739693172
10
1.624391591833616
20
-54.471166152146921
0
CIRCLE
5
121
100
AcDbEntity
8
0
100
AcDbCircle
10
-2.8735039763213699
20
-51.910309418903068
30
0
40
1.5000000000000036
210
0
220
-0
230
1
0
LWPOLYLINE
5
122
100
AcDbEntity
8
0
100
AcDbPolyline
90
4
70
1
43
0.0
10
-0.46173810670021354
20
-54.495533855993664
10
-0.28827953923074467
20
-49.498543549281905
10
-5.2852698459425262
20
-49.325084981812438
10
-5.4587284134119773
20
-54.322075288524204
0
CIRCLE
5
123
100
AcDbEntity
8
0
100
AcDbCircle
10
-9.7444418926166065
20
-51.449877156858861
30
0
40
1.5000000000000036
210
0
220
-0
230
1
0
LWPOLYLINE
5
124
100
AcDbEntity
8
0
100
AcDbPolyline
90
4
70
1
43
0.0
10
-7.4735677821464463
20
-54.159698327046343
10
-7.0346207224291124
20
-49.179003046388701
10
-12.015316003086776
20
-48.740055986671358
10
-12.454263062804101
20
-53.720751267329021
0
CIRCLE
5
125
100
AcDbEntity
8
0
100
AcDbCircle
10
-16.596642526669054
20
-50.793620156799463
30
0
40
1.5000000000000036
210
0
220
-0
230
1
0
LWPOLYLINE
5
126
100
AcDbEntity
8
0
100
AcDbPolyline
90
4
70
1
43
0.0
10
-14.37964042949055
20
-53.547690181527599
10
-13.842572501940902
20
-48.576618059620955
10
-18.813644623847551
20
-48.039550132071298
10
-19.350712551397198
20
-53.010622253977935
0
CIRCLE
5
127
100
AcDbEntity
8
0
100
AcDbCircle
10
-23.434571389661745
20
-50.002383375496294
30
0
40
1.5000000000000036
210
0
220
-0
230
1
0
LWPOLYLINE
5
128
100
AcDbEntity
8
0
100
AcDbPolyline
90
4
70
1
43
0.0
10
-21.272303303671229
20
-52.799631438201295
10
-20.637323326956736
20
-47.840115289505789
10
-25.596839475652253
20
-47.205135312791285
10
-26.231819452366743
20
-52.164651461486798
0
CIRCLE
5
129
100
AcDbEntity
8
0
100
AcDbCircle
10
-30.255569810092943
20
-49.076474455617785
30
0
40
1.5000000000000036
210
0
220
-0
230
1
0
LWPOLYLINE
5
130
100
AcDbEntity
8
0
100
AcDbPolyline
90
4
70
1
43
0.0
10
-28.148876451924735
20
-51.915812951579454
10
-27.416231314131263
20
-46.969781097449577
10
-32.362263168261151
20
-46.237135959656101
10
-33.09490830605462
20
-51.183167813785985
0
CIRCLE
5
131
100
AcDbEntity
8
0
100
AcDbCircle
10
-37.0569856992268
20
-48.016253402029044
30
0
40
1.5000000000000036
210
0
220
-0
230
1
0
LWPOLYLINE
5
132
100
AcDbEntity
8
0
100
AcDbPolyline
90
4
70
1
43
0.0
10
-35.006686177372146
20
-50.89657836124502
10
-34.176660740010803
20
-45.965953880174403
10
-39.10728522108144
20
-45.135928442813054
10
-39.93731065844279
20
-50.066552923883677
0
CIRCLE
5
133
100
AcDbEntity
8
0
100
AcDbCircle
10
-43.83617458225843
20
-46.822132441817736
30
0
40
1.5000000000000038
210
0
220
-0
230
1
0
LWPOLYLINE
5
134
100
AcDbEntity
8
0
100
AcDbPolyline
90
4
70
1
43
0.0
10
-41.843066078586006
20
-49.742323958240689
10
-40.915983065835455
20
-44.829023938145312
10
-45.82928308593084
20
-43.901940925394769
10
-46.75636609868139
20
-48.815240945490139
0
CIRCLE
5
135
100
AcDbEntity
8
0
100
AcDbCircle
10
-50.590500626518384
20
-45.494575864015005
30
0
40
1.5000000000000036
210
0
220
-0
230
1
0
LWPOLYLINE
5
136
100
AcDbEntity
8
0
100
AcDbPolyline
90
4
70
1
43
0.0
10
-48.655358086320071
20
-48.45349853098601
10
-47.631577959547364
20
-43.559433323816705
10
-52.525643166716677
20
-42.535653197043999
10
-53.549423293489383
20
-47.429718404213297
0
CIRCLE
5
137
100
AcDbEntity
8
0
100
AcDbCircle
10
-57.317337666317094
20
-44.034099839074131
30
0
40
1.5000000000000036
210
0
220
-0
230
1
0
LWPOLYLINE
5
138
100
AcDbEntity
8
0
100
AcDbPolyline
90
4
70
1
43
0.0
10
-55.440913496999677
20
-47.030603190782813
10
-54.320834314608398
20
-42.157675669756706
10
-59.193761835634511
20
-41.037596487365434
10
-60.313841018025784
20
-45.91052400839154
0
CIRCLE
5
139
100
AcDbEntity
8
0
100
AcDbCircle
10
-64.01407022403076
20
-42.441272218176884
30
0
40
1.5000000000000036
210
0
220
-0
230
1
0
LWPOLYLINE
5
140
100
AcDbEntity
8
0
100
AcDbPolyline
90
4
70
1
43
0.0
10
-62.197094002570552
20
-45.474191176976817
10
-60.981151265230821
20
-40.624295996716668
10
-65.831046445490969
20
-39.408353259376938
10
-67.0469891828307
20
-44.258248439637093
0
LWPOLYLINE
5
141
100
AcDbEntity
8
0
100
AcDbPolyline
90
10
70
1
43
0.0
10
-69.403417434296969
20
-44.13611224977889
42
0.28366093829895545
10
-65.91179715861773
20
-48.057683290087319
42
0.14686663206300452
10
66.852559588500341
20
-47.909327664180061
42
0.99999999999999989
10
63.389343538353828
20
-36.419935400443592
42
-0.12599673597268116
10
-45.098094649360519
20
-40.989211658275828
42
-0.35370547182960393
10
-54.573572086293112
20
-29.326041623139698
10
-54.715712419719978
20
31.715643695191321
42
0.41353170320301247
10
-60.21569750852133
20
37.202836550200367
10
-77.20118251743051
20
37.202836550200367
42
0.46634770193583991
10
-82.617499459153422
20
30.747058967911805
0
ENDSEC
0
SECTION
2
OBJECTS
0
DICTIONARY
5
C
100
AcDbDictionary
3
ACAD_GROUP
350
D
3
ACAD_MLINESTYLE
350
17
0
DICTIONARY
5
D
100
AcDbDictionary
0
DICTIONARY
5
1A
330
C
100
AcDbDictionary
0
DICTIONARY
5
17
100
AcDbDictionary
0
ENDSEC
0
EOF
